<svg xmlns="http://www.w3.org/2000/svg" width="18.437" height="18.437" viewBox="0 0 18.437 18.437">
  <defs>
    <style>
      .cls-1 {
        fill: #fff;
        fill-rule: evenodd;
      }
    </style>
  </defs>
  <path id="ADD_ICON" data-name="ADD ICON" class="cls-1" d="M79.576,593.688h0a1.919,1.919,0,0,1,1.92,1.919v14.6a1.92,1.92,0,0,1-1.92,1.92h0a1.92,1.92,0,0,1-1.92-1.92v-14.6A1.919,1.919,0,0,1,79.576,593.688ZM72.264,601h14.6a1.92,1.92,0,0,1,1.92,1.92v0a1.92,1.92,0,0,1-1.92,1.92h-14.6a1.92,1.92,0,0,1-1.92-1.92v0A1.92,1.92,0,0,1,72.264,601Z" transform="translate(-70.344 -593.688)"/>
</svg>
