<svg xmlns="http://www.w3.org/2000/svg" width="16.5" height="21.125" viewBox="0 0 16.5 21.125">
  <defs>
    <style>
      .cls-1 {
        fill: #fff;
        fill-rule: evenodd;
      }
    </style>
  </defs>
  <path id="NOTIFICATION_ICON" data-name="NOTIFICATION ICON" class="cls-1" d="M503.412,512.95l-1.424-1.412a2.682,2.682,0,0,1-.489-1.925v-3.127a5.8,5.8,0,0,0-4.51-5.636,1.152,1.152,0,0,0,.015-0.144,1.285,1.285,0,0,0-2.568,0,1.3,1.3,0,0,0,.014.141,5.633,5.633,0,0,0-4.509,5.448v3.318a3.009,3.009,0,0,1-.873,1.925l-1.424,1.412a1.254,1.254,0,0,0-.372.891v0.226a1.146,1.146,0,0,0,1.151,1.141h14.21a1.146,1.146,0,0,0,1.151-1.141v-0.226A1.254,1.254,0,0,0,503.412,512.95Zm-10.376,5.177a2.474,2.474,0,0,0,2.441,2.457,2.5,2.5,0,0,0,2.543-2.5v-0.127a0.449,0.449,0,0,0-.452-0.447h-4.08a0.449,0.449,0,0,0-.452.447v0.168Z" transform="translate(-487.281 -499.469)"/>
</svg>
